<svg width="40" height="31" viewBox="0 0 40 31" fill="none" xmlns="http://www.w3.org/2000/svg">
<path d="M5.50435 29.2886C5.11382 28.8981 5.11382 28.265 5.50435 27.8744L32.3744 1.00438C32.7649 0.613855 33.3981 0.613855 33.7886 1.00438L34.4957 1.71149C34.8862 2.10201 34.8862 2.73518 34.4957 3.1257L7.62567 29.9958C7.23514 30.3863 6.60198 30.3863 6.21145 29.9958L5.50435 29.2886Z" fill="#F47A0B"/>
<path d="M6.21147 1.00447C6.602 0.613946 7.23516 0.613946 7.62569 1.00447L34.4957 27.8745C34.8863 28.2651 34.8863 28.8982 34.4957 29.2887L33.7886 29.9958C33.3981 30.3864 32.7649 30.3864 32.3744 29.9958L5.50436 3.12579C5.11384 2.73527 5.11384 2.1021 5.50437 1.71158L6.21147 1.00447Z" fill="#F47A0B"/>
</svg>
