<svg width="24" height="24" viewBox="0 0 24 24" fill="none" xmlns="http://www.w3.org/2000/svg">
<g clip-path="url(#clip0_39_3130)">
<path d="M12.1301 8.5083H3.13081C2.93666 8.5083 2.7793 8.66571 2.7793 8.85982C2.7793 9.05397 2.93666 9.21133 3.13081 9.21133H12.1301C12.3243 9.21133 12.4816 9.05393 12.4816 8.85982C12.4816 8.66571 12.3243 8.5083 12.1301 8.5083Z" fill="#E27410"/>
<path d="M12.1301 10.978H3.13081C2.93666 10.978 2.7793 11.1354 2.7793 11.3295C2.7793 11.5237 2.93666 11.6811 3.13081 11.6811H12.1301C12.3243 11.6811 12.4816 11.5237 12.4816 11.3295C12.4816 11.1354 12.3243 10.978 12.1301 10.978Z" fill="#E27410"/>
<path d="M12.1301 13.4482H3.13081C2.93666 13.4482 2.7793 13.6056 2.7793 13.7998C2.7793 13.9939 2.93666 14.1513 3.13081 14.1513H12.1301C12.3243 14.1513 12.4816 13.9939 12.4816 13.7998C12.4816 13.6056 12.3243 13.4482 12.1301 13.4482Z" fill="#E27410"/>
<path d="M12.4816 16.27C12.4816 16.0758 12.3243 15.9185 12.1301 15.9185H3.13081C2.93666 15.9185 2.7793 16.0759 2.7793 16.27C2.7793 16.4641 2.93666 16.6215 3.13081 16.6215H12.1301C12.3243 16.6215 12.4816 16.4641 12.4816 16.27Z" fill="#E27410"/>
<path d="M3.13081 19.5386C2.93666 19.5386 2.7793 19.696 2.7793 19.8901C2.7793 20.0842 2.93666 20.2416 3.13081 20.2416H7.64197C7.83613 20.2416 7.99349 20.0842 7.99349 19.8901C7.99349 19.696 7.83613 19.5386 7.64197 19.5386H3.13081Z" fill="#E27410"/>
<path d="M16.181 4.35255V3.21189C16.181 2.77736 15.8275 2.42383 15.3929 2.42383H8.17571C7.74118 2.42383 7.3877 2.77736 7.3877 3.21189V4.35255C7.3877 4.78708 7.74118 5.14056 8.17571 5.14056H8.78518C8.97934 5.14056 9.1367 4.98316 9.1367 4.78905C9.1367 4.59489 8.97934 4.43753 8.78518 4.43753H8.17571C8.12888 4.43753 8.09077 4.39942 8.09077 4.35259V3.21189C8.09077 3.16506 8.12888 3.12691 8.17571 3.12691H15.3929C15.4398 3.12691 15.4779 3.16502 15.4779 3.21189V4.35255C15.4779 4.39937 15.4398 4.43748 15.3929 4.43748H8.79097C8.59681 4.43748 8.43945 4.59489 8.43945 4.789C8.43945 4.98316 8.59681 5.14052 8.79097 5.14052H15.393C15.8275 5.14061 16.181 4.78708 16.181 4.35255Z" fill="#E27410"/>
<path d="M18.8095 20.25C18.6153 20.25 18.4579 20.4074 18.4579 20.6015V22.2607C18.4579 22.832 17.9931 23.2969 17.4216 23.2969H1.87028C1.29892 23.2969 0.834013 22.8321 0.834013 22.2607V5.36381C0.834013 5.28773 0.842919 5.21311 0.85881 5.1405H4.05958C4.72783 5.1405 5.27148 4.59684 5.27148 3.92859V0.727875C5.34409 0.711984 5.41867 0.703078 5.49475 0.703078H17.4216C17.993 0.703078 18.4579 1.16794 18.4579 1.73934V7.89848C18.4579 8.09264 18.6152 8.25 18.8094 8.25C19.0036 8.25 19.1609 8.09259 19.1609 7.89848V1.7393C19.161 0.780281 18.3807 0 17.4216 0H5.49479C5.03022 0 4.59339 0.180937 4.26489 0.509438L0.640372 4.13395C0.311872 4.46245 0.130981 4.89923 0.130981 5.36386V22.2607C0.130981 23.2198 0.911216 24 1.87028 24H17.4216C18.3807 24 19.161 23.2197 19.161 22.2607V20.6016C19.161 20.4074 19.0036 20.25 18.8095 20.25ZM4.56845 1.20019V3.92859C4.56845 4.20919 4.34017 4.43747 4.05958 4.43747H1.33117L4.56845 1.20019Z" fill="#E27410"/>
<path d="M23.6242 12.5626C23.8709 12.2004 23.9348 11.7536 23.7993 11.3368C23.6639 10.92 23.3496 10.5961 22.9371 10.4482C22.6635 10.35 22.4809 10.0988 22.4722 9.80814C22.4589 9.3701 22.2479 8.9711 21.8933 8.71347C21.5388 8.45589 21.094 8.3786 20.6735 8.50132C20.3942 8.58279 20.099 8.48679 19.9211 8.25686C19.6529 7.91022 19.2477 7.71143 18.8094 7.71143C18.3712 7.71143 17.966 7.91022 17.6978 8.25686C17.5198 8.48683 17.2245 8.58269 16.9454 8.50132C16.5248 8.3785 16.0801 8.45589 15.7255 8.71347C15.3709 8.9711 15.16 9.37005 15.1467 9.8081C15.138 10.0987 14.9554 10.3499 14.6817 10.4481C14.2692 10.5961 13.9549 10.92 13.8196 11.3368C13.6841 11.7536 13.748 12.2004 13.9947 12.5626C14.1584 12.8029 14.1584 13.1134 13.9947 13.3537C13.748 13.7159 13.6841 14.1626 13.8196 14.5795C13.9549 14.9963 14.2692 15.3202 14.6817 15.4682C14.9554 15.5664 15.138 15.8176 15.1467 16.1082C15.159 16.5111 15.3436 16.8897 15.6534 17.1468C15.8579 17.3165 16.1034 17.4227 16.3605 17.4582V20.6587C16.3605 20.9288 16.5069 21.1784 16.7427 21.3101C16.9781 21.4416 17.2676 21.4358 17.4977 21.2941L18.787 20.5004C18.808 20.4874 18.8205 20.4933 18.8321 20.5004L20.1213 21.2941C20.3513 21.4356 20.6407 21.4417 20.8764 21.31C21.1121 21.1783 21.2586 20.9287 21.2586 20.6587V17.4581C21.5155 17.4227 21.7611 17.3165 21.9655 17.1468C22.2754 16.8897 22.4601 16.5112 22.4723 16.1081C22.481 15.8175 22.6636 15.5663 22.9373 15.4681C23.3498 15.3202 23.6641 14.9962 23.7995 14.5794C23.9349 14.1626 23.8711 13.7158 23.6243 13.3536C23.4604 13.1134 23.4604 12.8029 23.6242 12.5626ZM20.4898 20.6954L19.2005 19.9017C18.9609 19.7542 18.6582 19.7539 18.4183 19.9017L17.1291 20.6953C17.0997 20.7132 17.0635 20.6926 17.0635 20.6587V17.3914C17.3052 17.3635 17.5448 17.4618 17.6978 17.6595C17.966 18.0061 18.3712 18.2049 18.8095 18.2049C19.2477 18.2049 19.6529 18.0061 19.9211 17.6595C20.0741 17.4618 20.3138 17.3635 20.5554 17.3914V20.6587C20.5554 20.6928 20.5187 20.7132 20.4898 20.6954ZM23.0431 13.7496C23.1665 13.9307 23.1984 14.1539 23.1307 14.3622C23.063 14.5705 22.9059 14.7325 22.6997 14.8064C22.1521 15.0028 21.787 15.5055 21.7694 16.087C21.7632 16.2914 21.6733 16.4756 21.5164 16.6059C21.34 16.7523 21.1012 16.8075 20.8704 16.7402C20.312 16.5772 19.7211 16.7692 19.365 17.2293C19.231 17.4025 19.0284 17.5018 18.8094 17.5018C18.5904 17.5018 18.3879 17.4025 18.2537 17.2293C17.9819 16.8779 17.5731 16.6829 17.1464 16.6829C17.0143 16.6829 16.8804 16.7016 16.7484 16.7401C16.5155 16.808 16.2773 16.7511 16.1023 16.6058C15.9454 16.4756 15.8556 16.2913 15.8494 16.087C15.8318 15.5055 15.4667 15.0028 14.919 14.8064C14.7129 14.7324 14.5558 14.5705 14.4881 14.3622C14.4204 14.1539 14.4523 13.9306 14.5757 13.7496C14.9032 13.2688 14.9032 12.6475 14.5757 12.1668C14.4523 11.9857 14.4204 11.7624 14.4881 11.5541C14.5558 11.3457 14.7129 11.1838 14.919 11.1099C15.4667 10.9135 15.8318 10.4108 15.8494 9.82933C15.856 9.61038 15.9614 9.41097 16.1387 9.28225C16.3158 9.15349 16.538 9.11486 16.7484 9.17618C17.3067 9.33916 17.8978 9.14711 18.2537 8.68708C18.3878 8.51383 18.5903 8.41446 18.8094 8.41446C19.0284 8.41446 19.2309 8.51379 19.365 8.68704C19.721 9.14711 20.3118 9.33911 20.8704 9.17618C21.0807 9.11477 21.3029 9.15344 21.4801 9.28221C21.6573 9.41093 21.7628 9.61038 21.7694 9.82928C21.787 10.4108 22.1521 10.9135 22.6997 11.1099C22.9059 11.1838 23.063 11.3457 23.1307 11.554C23.1984 11.7623 23.1665 11.9857 23.0431 12.1667C22.7155 12.6475 22.7155 13.2688 23.0431 13.7496Z" fill="#E27410"/>
<path d="M18.8094 10.0117C17.1848 10.0117 15.8632 11.3334 15.8632 12.958C15.8632 14.5826 17.1848 15.9043 18.8094 15.9043C20.434 15.9043 21.7557 14.5826 21.7557 12.958C21.7557 11.3334 20.434 10.0117 18.8094 10.0117ZM18.8094 15.2012C17.5725 15.2012 16.5662 14.1949 16.5662 12.958C16.5662 11.7212 17.5725 10.7148 18.8094 10.7148C20.0464 10.7148 21.0526 11.7211 21.0526 12.958C21.0526 14.195 20.0463 15.2012 18.8094 15.2012Z" fill="#E27410"/>
</g>
<defs>
<clipPath id="clip0_39_3130">
<rect width="24" height="24" fill="white"/>
</clipPath>
</defs>
</svg>
