<svg width="24" height="24" viewBox="0 0 24 24" fill="none" xmlns="http://www.w3.org/2000/svg">
<circle cx="12" cy="12" r="11.5" fill="white" stroke="#E27410"/>
<g clip-path="url(#clip0_27_565)">
<path d="M12 19.1902C8.03555 19.1902 4.81018 15.9648 4.81018 12.0002C4.81018 8.03583 8.03555 4.81055 12 4.81055C15.9645 4.81055 19.1899 8.03583 19.1899 12.0002C19.1899 15.9648 15.9645 19.1902 12 19.1902ZM12 5.81055C8.58693 5.81055 5.81018 8.58723 5.81018 12.0002C5.81018 15.4134 8.58693 18.1902 12 18.1902C15.4132 18.1902 18.1899 15.4134 18.1899 12.0002C18.1899 8.58723 15.4132 5.81055 12 5.81055Z" fill="#E27410"/>
<path d="M14.41 14.3929C14.3213 14.3929 14.2315 14.3693 14.1503 14.3197L11.7398 12.8507C11.5908 12.7599 11.5 12.5981 11.5 12.4237V8.87402C11.5 8.5979 11.7239 8.37402 12 8.37402C12.2761 8.37402 12.5 8.5979 12.5 8.87402V12.1429L14.6707 13.4658C14.9065 13.6095 14.9811 13.9172 14.8374 14.153C14.7433 14.3075 14.5786 14.3929 14.41 14.3929Z" fill="#E27410"/>
</g>
<defs>
<clipPath id="clip0_27_565">
<rect width="16" height="16" fill="white" transform="translate(4 4)"/>
</clipPath>
</defs>
</svg>
