<svg width="24" height="24" viewBox="0 0 24 24" fill="none" xmlns="http://www.w3.org/2000/svg">
<path d="M24 10.4497H22.713C22.0631 8.52055 20.2407 7.12549 18.0952 7.12549C15.9002 7.12549 14.041 8.58444 13.4323 10.583C13.0473 10.3286 12.5535 10.1709 11.9997 10.1709C11.4461 10.1709 10.9524 10.3285 10.5673 10.583C9.95852 8.58438 8.09896 7.12554 5.90404 7.12554C3.75858 7.12554 1.93624 8.5206 1.28649 10.4498H0V11.4498H1.0626C1.04213 11.6308 1.02929 11.8141 1.02929 12.0005C1.02929 14.6885 3.21608 16.875 5.90404 16.875C8.59199 16.875 10.779 14.6885 10.779 12.0005C10.779 11.9725 10.7753 11.9454 10.7748 11.9175H10.7783C10.7783 11.5645 11.28 11.1709 11.9998 11.1709C12.7197 11.1709 13.2212 11.5645 13.2212 11.9175H13.2249C13.2244 11.9454 13.2207 11.9725 13.2207 12.0005C13.2207 14.6885 15.4072 16.875 18.0952 16.875C20.7832 16.875 22.9702 14.6885 22.9702 12.0005C22.9702 11.8141 22.9574 11.6308 22.9369 11.4498H24V10.4497ZM5.90404 15.8751C3.76757 15.8751 2.02927 14.1368 2.02927 12.0005C2.02927 9.86382 3.76757 8.12552 5.90404 8.12552C8.04076 8.12552 9.77905 9.86382 9.77905 12.0005C9.77905 14.1368 8.04076 15.8751 5.90404 15.8751ZM18.0953 15.8751C15.959 15.8751 14.2207 14.1368 14.2207 12.0005C14.2207 9.86382 15.959 8.12552 18.0953 8.12552C20.232 8.12552 21.9703 9.86382 21.9703 12.0005C21.9702 14.1368 20.2319 15.8751 18.0953 15.8751Z" fill="#E27410"/>
</svg>
