<svg width="24" height="24" viewBox="0 0 24 24" fill="none" xmlns="http://www.w3.org/2000/svg">
<g clip-path="url(#clip0_22_86)">
<path d="M8.44521 13.9768C9.6288 15.3916 11.0536 16.5056 12.6798 17.2938C13.2989 17.5872 14.1269 17.9353 15.0494 17.995C15.1066 17.9975 15.1613 18 15.2185 18C15.8377 18 16.335 17.7862 16.7403 17.346C16.7428 17.3436 16.7477 17.3386 16.7502 17.3336C16.8944 17.1596 17.0586 17.0029 17.2301 16.8363C17.347 16.7244 17.4663 16.6075 17.5807 16.4882C18.1104 15.9362 18.1104 15.235 17.5757 14.7004L16.0813 13.206C15.8277 12.9424 15.5244 12.8031 15.2061 12.8031C14.8878 12.8031 14.582 12.9424 14.3209 13.2035L13.4307 14.0937C13.3486 14.0464 13.2641 14.0041 13.1845 13.9644C13.0851 13.9146 12.9931 13.8674 12.911 13.8152C12.1004 13.3005 11.3644 12.6291 10.6607 11.7663C10.3051 11.3162 10.0664 10.9383 9.89983 10.5528C10.1336 10.3415 10.3524 10.1202 10.5637 9.90385C10.6383 9.82677 10.7154 9.74969 10.7925 9.67261C11.061 9.40406 11.2053 9.09324 11.2053 8.77746C11.2053 8.46167 11.0635 8.15085 10.7925 7.8823L10.0515 7.14132C9.96448 7.05429 9.88242 6.96975 9.79788 6.88272C9.63377 6.71363 9.4622 6.53958 9.29311 6.38293C9.037 6.13179 8.73613 6 8.41785 6C8.10207 6 7.79871 6.13179 7.53265 6.38541L6.60269 7.31538C6.26452 7.65354 6.07306 8.06382 6.03327 8.53875C5.98603 9.13303 6.09543 9.76461 6.3789 10.528C6.81404 11.7091 7.47049 12.8056 8.44521 13.9768ZM6.63998 8.59097C6.66982 8.26026 6.79664 7.98425 7.03534 7.74554L7.96033 6.82056C8.10455 6.68131 8.26369 6.6092 8.41785 6.6092C8.56953 6.6092 8.7237 6.68131 8.86543 6.82553C9.03203 6.97969 9.18868 7.14132 9.35776 7.31289C9.44231 7.39992 9.52933 7.48695 9.61636 7.57646L10.3573 8.31745C10.5115 8.47161 10.5911 8.62826 10.5911 8.78243C10.5911 8.93659 10.5115 9.09325 10.3573 9.24741C10.2803 9.32449 10.2032 9.40406 10.1261 9.48114C9.89485 9.71488 9.67853 9.93618 9.43982 10.1475C9.43485 10.1525 9.43236 10.155 9.42739 10.16C9.221 10.3663 9.25333 10.5628 9.30306 10.712C9.30555 10.7194 9.30803 10.7244 9.31052 10.7319C9.50198 11.1919 9.76804 11.6295 10.1833 12.1517C10.9293 13.0717 11.715 13.7853 12.5803 14.3349C12.6872 14.4045 12.8016 14.4592 12.9085 14.5139C13.008 14.5636 13.1 14.6109 13.182 14.6631C13.192 14.668 13.1995 14.673 13.2094 14.678C13.2915 14.7203 13.371 14.7402 13.4506 14.7402C13.6495 14.7402 13.7788 14.6133 13.8211 14.5711L14.751 13.6411C14.8953 13.4969 15.0519 13.4198 15.2061 13.4198C15.3951 13.4198 15.5492 13.5367 15.6462 13.6411L17.1456 15.138C17.444 15.4364 17.4415 15.7596 17.1381 16.0754C17.0337 16.1873 16.9243 16.2942 16.8074 16.4061C16.6334 16.5752 16.4518 16.7493 16.2877 16.9457C16.0018 17.254 15.6611 17.3983 15.221 17.3983C15.1787 17.3983 15.134 17.3958 15.0917 17.3933C14.2761 17.3411 13.5177 17.0228 12.9483 16.7518C11.4017 16.0033 10.044 14.9416 8.91765 13.5939C7.99017 12.4774 7.36605 11.438 6.95329 10.3241C6.69718 9.64028 6.6002 9.09076 6.63998 8.59097Z" fill="#E27410"/>
</g>
<circle cx="12" cy="12" r="11.5" stroke="#E27410"/>
<defs>
<clipPath id="clip0_22_86">
<rect width="12" height="12" fill="white" transform="translate(6 6)"/>
</clipPath>
</defs>
</svg>
