<svg width="24" height="24" viewBox="0 0 24 24" fill="none" xmlns="http://www.w3.org/2000/svg">
<circle cx="12" cy="12" r="11.5" fill="white" stroke="#E27410"/>
<path d="M16.0974 15.3909H7.90247C7.6361 15.3906 7.38073 15.2846 7.19238 15.0963C7.00404 14.9079 6.89811 14.6525 6.89783 14.3862V9.32505C6.89811 9.05868 7.00404 8.8033 7.19238 8.61494C7.38073 8.42657 7.6361 8.32062 7.90247 8.32031H16.0974C16.3638 8.32062 16.6192 8.42657 16.8075 8.61494C16.9958 8.8033 17.1018 9.05868 17.1021 9.32505V14.3862C17.1018 14.6525 16.9958 14.9079 16.8075 15.0963C16.6192 15.2846 16.3638 15.3906 16.0974 15.3909ZM7.90247 8.70431C7.7379 8.70449 7.58013 8.76995 7.46377 8.88632C7.34741 9.0027 7.28198 9.16048 7.28183 9.32505V14.3862C7.28198 14.5507 7.34741 14.7085 7.46377 14.8249C7.58013 14.9413 7.7379 15.0067 7.90247 15.0069H16.0974C16.262 15.0067 16.4198 14.9413 16.5361 14.8249C16.6525 14.7085 16.7179 14.5507 16.7181 14.3862V9.32505C16.7179 9.16048 16.6525 9.0027 16.5361 8.88632C16.4198 8.76995 16.262 8.70449 16.0974 8.70431H7.90247Z" fill="#E27410"/>
<path d="M11.9999 12.9856C11.9531 12.9856 11.9079 12.9685 11.8728 12.9376L7.24561 8.85294L7.49972 8.56494L11.9999 12.5378L16.5003 8.56542L16.7544 8.85342L12.1272 12.938C12.092 12.9689 12.0467 12.9858 11.9999 12.9856Z" fill="#E27410"/>
<path d="M7.14124 14.7881L10.2497 11.2463L10.5385 11.4997L7.43 15.0415L7.14124 14.7881Z" fill="#E27410"/>
<path d="M13.4712 11.4961L13.76 11.2427L16.8685 14.7845L16.5798 15.038L13.4712 11.4961Z" fill="#E27410"/>
</svg>
